<?xml version="1.0" encoding="UTF-8" standalone="no"?>
<!-- Created with Inkscape (http://www.inkscape.org/) -->

<svg
   width="10.969227mm"
   height="8.4666662mm"
   viewBox="0 0 10.969227 8.4666661"
   version="1.1"
   id="svg1035"
   inkscape:version="1.2.2 (732a01da63, 2022-12-09)"
   sodipodi:docname="logo_mobile.svg"
   inkscape:export-filename="D:\Libraries Type-D\Documents\Longhorn Riichi\Art Stuff\Finished Promo Products\Ronhorns_no_margin.pngRonhorns.png"
   inkscape:export-xdpi="600"
   inkscape:export-ydpi="600"
   xmlns:inkscape="http://www.inkscape.org/namespaces/inkscape"
   xmlns:sodipodi="http://sodipodi.sourceforge.net/DTD/sodipodi-0.dtd"
   xmlns="http://www.w3.org/2000/svg"
   xmlns:svg="http://www.w3.org/2000/svg"
   xmlns:rdf="http://www.w3.org/1999/02/22-rdf-syntax-ns#"
   xmlns:cc="http://creativecommons.org/ns#"
   xmlns:dc="http://purl.org/dc/elements/1.1/">
  <defs
     id="defs1029" />
  <sodipodi:namedview
     id="base"
     pagecolor="#ffffff"
     bordercolor="#666666"
     borderopacity="1.0"
     inkscape:pageopacity="0.0"
     inkscape:pageshadow="2"
     inkscape:zoom="2.8284271"
     inkscape:cx="25.279068"
     inkscape:cy="99.702057"
     inkscape:document-units="mm"
     inkscape:current-layer="layer9"
     showgrid="false"
     inkscape:window-width="1920"
     inkscape:window-height="1009"
     inkscape:window-x="-8"
     inkscape:window-y="-8"
     inkscape:window-maximized="1"
     inkscape:snap-global="true"
     inkscape:measure-start="75.4375,80.9375"
     inkscape:measure-end="70.875,83.25"
     inkscape:pagecheckerboard="0"
     inkscape:showpageshadow="2"
     inkscape:deskcolor="#d1d1d1" />
  <metadata
     id="metadata1032">
    <rdf:RDF>
      <cc:Work
         rdf:about="">
        <dc:format>image/svg+xml</dc:format>
        <dc:type
           rdf:resource="http://purl.org/dc/dcmitype/StillImage" />
      </cc:Work>
    </rdf:RDF>
  </metadata>
  <g
     inkscape:groupmode="layer"
     id="layer9"
     inkscape:label="Ronhorns (White Dots)"
     style="display:inline"
     transform="matrix(0.29990178,0,0,0.29990178,-2.0129313,-7.4628362)">
    <path
       id="XMLID_296_-3-5-6-7"
       class="st4"
       d="m 28.135997,35.937719 v 0 c 0.0799,-0.04001 0.159798,-0.04001 0.199747,-0.04001 0.199745,-0.07987 0.479387,-0.07987 0.759029,-0.07987 0.798982,0 1.757757,0.07987 2.83638,0.239695 1.078624,0.199743 2.0374,0.319598 2.91628,0.319598 0.239694,0 0.439439,-0.04001 0.639183,-0.119886 0.199745,-0.07987 0.239694,-0.319582 0.239694,-0.639178 0,-0.399485 -0.159795,-0.798986 -0.519337,-1.15852 -0.35954,-0.359548 -1.038675,-0.838936 -2.0374,-1.358276 -0.319591,-0.199743 -0.599234,-0.359533 -0.838928,-0.519325 -0.199747,-0.159807 -0.399492,-0.319597 -0.639186,-0.399501 -0.199742,-0.119733 -0.519337,-0.15973 -0.838929,-0.15973 -0.439438,0 -1.558012,0.199743 -3.395666,0.559291 -1.837655,0.359535 -3.875056,0.838923 -6.112198,1.358262 -0.399491,0.07987 -0.759032,0.119885 -1.158522,0.239695 -0.279643,0.07987 -0.599237,0.119884 -0.878879,0.199741 -0.359542,0.07987 -0.759031,0.159792 -1.118574,0.239694 -1.55801,0.35955 -2.876329,0.63918 -3.915,0.838938 0.03995,0.239694 0.199743,0.439436 0.479388,0.519325 0.27964,0.07987 0.559283,0.159805 0.878877,0.159805 0.0799,0 0.239694,-0.04001 0.479387,-0.07987 0.199745,-0.04001 0.479388,-0.07987 0.838929,-0.15979 0.0799,0 0.119855,-0.04001 0.199746,-0.04001 0.958778,-0.199743 2.197196,-0.439437 3.715259,-0.719082 1.518061,-0.279646 3.036124,-0.399486 4.594135,-0.399486 0.39949,0 0.798984,0.03986 1.198472,0.07987 0.399489,0.04001 0.679133,0.159807 0.79898,0.279646 -0.0799,0.239694 -0.279644,0.479388 -0.519339,0.719082 -0.239694,0.239694 -0.479388,0.479389 -0.759029,0.679131 -0.119839,0.04001 -0.239695,0.07987 -0.319592,0.07987 -0.199746,0.07987 -0.359542,0.119885 -0.519337,0.199743 -0.159796,0.239695 -0.199746,0.479388 -0.239696,0.719082 0,0.07987 -0.03995,0.159791 -0.03995,0.199742 -0.239694,0.319597 -0.599235,0.798986 -1.118571,1.358277 -0.519339,0.559276 -1.078623,1.158519 -1.67786,1.797698 0,-0.239694 -0.03995,-0.639179 -0.0799,-1.158519 -0.03995,-0.51934 -0.159796,-1.038679 -0.279644,-1.478116 -0.119839,-0.439437 -0.319591,-0.679131 -0.599235,-0.679131 -0.159796,0 -0.279643,0.119885 -0.319591,0.319597 -0.03995,0.199743 -0.03995,0.399486 -0.03995,0.599228 0,0.199743 0.03995,0.479388 0.0799,0.878873 0.03995,0.399501 0.11984,0.838937 0.159796,1.318325 0.03995,0.359534 0.0799,0.719083 0.11984,1.03868 -0.958777,0.519325 -2.037401,0.918825 -3.195922,1.278358 -0.159796,-0.199742 -0.439439,-0.519339 -0.878878,-0.918825 -0.43944,-0.399485 -0.918828,-0.759033 -1.398216,-1.118567 -0.03995,-0.04001 -0.0799,-0.04001 -0.119855,0 -0.03995,0.04001 -0.0799,0.07987 -0.119839,0.119885 -0.03995,0.07987 -0.0799,0.119885 -0.159796,0.159806 0.03995,0.359534 0.39949,1.31831 1.038675,2.836379 0.639184,1.518053 1.59796,3.914992 2.836379,7.15087 -0.03995,0.04001 -0.119839,0.07987 -0.199744,0.07987 -0.159797,0.07987 -0.319593,0.159791 -0.479388,0.279645 -0.159797,0.119885 -0.239694,0.279628 -0.239694,0.439435 0,0.239696 0.159795,0.479389 0.479388,0.719083 0.319591,0.279632 0.918826,0.399487 1.837654,0.399487 0.479389,0 0.918828,-0.04001 1.318319,-0.119886 0.439438,-0.07987 0.958775,-0.119884 1.55801,-0.119884 0.559287,0 1.038675,0.04001 1.438165,0.119884 0.439439,0.07987 0.918828,0.119886 1.398216,0.119886 0.599236,0 1.078624,-0.07987 1.358266,-0.199743 0.279642,-0.119885 0.519336,-0.279646 0.639183,-0.3995 0.119841,-0.159792 0.199747,-0.279631 0.239695,-0.399484 v -0.04001 c 1.078624,-2.277086 2.037401,-3.954945 2.87633,-4.993626 0.83893,-1.038678 1.478113,-1.75776 1.99745,-2.117295 0.279644,-0.239694 0.479391,-0.439435 0.639186,-0.639179 0.159795,-0.199757 0.239694,-0.399499 0.239694,-0.639193 0,-0.479388 -0.359542,-1.078616 -1.038675,-1.757748 -0.679132,-0.679146 -1.438164,-1.238422 -2.277094,-1.757762 -0.838929,-0.51934 -1.438165,-0.759034 -1.837656,-0.759034 -0.279642,0 -0.479388,0.04001 -0.639183,0.07987 -0.159797,0.04001 -0.319594,0.119885 -0.479389,0.199743 -0.159796,0.07987 -0.359541,0.199742 -0.639183,0.279645 -0.279644,0.119885 -0.639185,0.199743 -1.118574,0.279646 0.03995,-0.3995 0.119839,-0.679131 0.199745,-0.878889 0.0799,-0.199742 0.159796,-0.399485 0.239694,-0.559276 0.319594,-0.119884 0.639185,-0.199757 0.998726,-0.239694 0.279643,-0.04001 0.519337,-0.07987 0.719081,-0.159806 0.199747,-0.07987 0.279645,-0.279646 0.279645,-0.559276 0,-0.279646 -0.0799,-0.51934 -0.279645,-0.679145 -0.199744,-0.159792 -0.439438,-0.279631 -0.679132,-0.399486 -0.03995,0 -0.0799,-0.04001 -0.0799,-0.04001 0.03995,-0.15979 0.119839,-0.279628 0.239694,-0.399484 -0.0799,-0.279645 0.03995,-0.35955 0.119854,-0.399485 z m -7.110924,14.90097 c -0.119839,-0.439436 -0.319592,-1.118566 -0.639183,-1.99744 -0.319593,-0.918824 -0.639186,-1.837665 -0.998727,-2.796442 -0.359541,-0.958776 -0.679132,-1.757746 -0.918826,-2.356989 0.479388,-0.239694 0.998725,-0.479388 1.558011,-0.719082 0.519338,-0.199743 0.958777,-0.359534 1.318318,-0.479388 l 0.199744,3.475571 c 0,1.238422 0.0799,2.1972 0.279644,2.956218 0.03995,0.239694 0.0799,0.479388 0.0799,0.759033 0.0799,0.359549 0.11984,0.759036 0.159796,1.158519 z m 2.676584,-10.666378 c 0.0799,-0.239694 0.199746,-0.479388 0.319593,-0.67913 0.199745,-0.159805 0.439439,-0.239695 0.719083,-0.239695 l 0.239694,0.04001 v 0.199744 c 0,0.199743 0,0.359533 -0.03995,0.559277 0,0.159806 -0.03995,0.319597 -0.03995,0.43945 -0.199746,0.03986 -0.359541,0.07987 -0.479388,0.159792 -0.119839,0.04001 -0.239695,0.07987 -0.39949,0.119885 -0.119854,0.04001 -0.319593,0.04001 -0.519337,0.07987 0.03995,-0.239694 0.119853,-0.439437 0.199744,-0.679131 z m 0.838929,3.71525 c -0.03995,0.359548 -0.0799,0.759033 -0.119839,1.19847 -0.159796,1.677859 -0.319591,3.635363 -0.479389,5.872513 -0.159795,0 -0.319591,0 -0.479388,-0.04001 -0.159794,0 -0.319591,-0.04001 -0.479388,-0.04001 -0.119855,-2.356989 -0.239694,-4.314494 -0.399489,-5.872495 l -0.159796,-2.956118 c 0.359541,-0.119885 0.798979,-0.239694 1.278367,-0.359534 0.319593,-0.07987 0.639186,-0.119884 0.998728,-0.239694 z m 2.277092,-2.796426 c 0.199747,-0.04001 0.47939,-0.04001 0.759034,-0.04001 0.199743,0 0.479388,0.07987 0.878877,0.279647 0.359542,0.159791 0.719083,0.399485 0.998727,0.719082 0.279644,0.319596 0.439439,0.639179 0.439439,1.038678 0,0.319584 -0.279642,1.038667 -0.798982,2.157247 -0.519337,1.118569 -1.11857,2.237138 -1.757756,3.355717 -0.639183,1.118567 -1.158521,1.957504 -1.518063,2.476832 -0.0799,0 -0.159796,0.04001 -0.199745,0.04001 -0.119856,0.04001 -0.199743,0.07987 -0.319591,0.07987 -0.0799,0 -0.119841,0 -0.199747,-0.04001 -0.0799,-0.04001 -0.159794,-0.04001 -0.239694,-0.04001 0.199747,-2.756475 0.399491,-4.913718 0.679134,-6.431787 l 0.159796,-1.398213 0.319592,-1.997458 c 0.319591,-0.159789 0.599235,-0.199742 0.798979,-0.199742 z"
       inkscape:connector-curvature="0"
       style="display:inline;opacity:1;fill:#000000;fill-opacity:1;stroke-width:0.39949"
       inkscape:label="西"
       inkscape:export-filename="D:\Libraries Type-D\Documents\Longhorn Riichi\Logo\Proposals\Orange with Dots.png"
       inkscape:export-xdpi="600"
       inkscape:export-ydpi="600" />
    <circle
       style="display:inline;opacity:1;fill:#ffffff;fill-opacity:1;stroke:none;stroke-width:0.0452965;stroke-linecap:butt;stroke-linejoin:miter;stroke-miterlimit:4;stroke-dasharray:none;stroke-opacity:1"
       id="path5985-3"
       cx="22.001606"
       cy="44.85714"
       r="0.23021327"
       inkscape:label="点棒 - 点"
       inkscape:export-filename="D:\Libraries Type-D\Documents\Longhorn Riichi\Logo\Proposals\Orange with Dots.png"
       inkscape:export-xdpi="600"
       inkscape:export-ydpi="600" />
    <circle
       style="display:inline;opacity:1;fill:#ffffff;fill-opacity:1;stroke:none;stroke-width:0.0452965;stroke-linecap:butt;stroke-linejoin:miter;stroke-miterlimit:4;stroke-dasharray:none;stroke-opacity:1"
       id="path5985-3-6"
       cx="24.959946"
       cy="44.740208"
       r="0.23021327"
       inkscape:label="点棒 - 点"
       inkscape:export-filename="D:\Libraries Type-D\Documents\Longhorn Riichi\Logo\Proposals\Orange with Dots.png"
       inkscape:export-xdpi="600"
       inkscape:export-ydpi="600" />
    <path
       style="opacity:1;fill:#000000;fill-opacity:1;stroke:#000000;stroke-width:0;stroke-linecap:butt;stroke-linejoin:miter;stroke-miterlimit:4;stroke-dasharray:none;stroke-opacity:1"
       d="m 6.711969,24.884268 c 0.733524,3.147067 2.560142,6.515675 4.525305,7.846033 3.445934,2.332796 9.775205,1.553946 13.762467,1.554944 3.987262,-0.001 10.317051,0.777852 13.762984,-1.554944 1.965163,-1.330358 3.791783,-4.698966 4.525306,-7.846033 -1.602414,3.082976 -3.815233,4.993632 -6.653858,6.136577 -2.993824,1.205435 -5.210506,0.859271 -7.808309,0.697631 -1.343514,-0.08359 -2.399489,-0.239261 -3.826123,-0.239261 -1.426633,0 -2.482091,0.155666 -3.825606,0.239261 -2.597802,0.16164 -4.814484,0.507804 -7.808309,-0.697631 C 10.527201,29.8779 8.314382,27.967244 6.711969,24.884268 Z"
       id="path866"
       inkscape:connector-curvature="0"
       sodipodi:nodetypes="cscscsscssc"
       inkscape:label="角" />
  </g>
</svg>
