<?xml version="1.0" encoding="UTF-8" standalone="no"?>
<!-- Created with Inkscape (http://www.inkscape.org/) -->

<svg
   width="10.969227mm"
   height="8.4666805mm"
   viewBox="0 0 10.969227 8.4666805"
   version="1.1"
   id="svg1035"
   inkscape:version="1.2.2 (732a01da63, 2022-12-09)"
   sodipodi:docname="logo-mobile.svg"
   inkscape:export-filename="D:\Libraries Type-D\Documents\Longhorn Riichi\Art Stuff\Finished Promo Products\Ronhorns_no_margin.pngRonhorns.png"
   inkscape:export-xdpi="600"
   inkscape:export-ydpi="600"
   xmlns:inkscape="http://www.inkscape.org/namespaces/inkscape"
   xmlns:sodipodi="http://sodipodi.sourceforge.net/DTD/sodipodi-0.dtd"
   xmlns="http://www.w3.org/2000/svg"
   xmlns:svg="http://www.w3.org/2000/svg"
   xmlns:rdf="http://www.w3.org/1999/02/22-rdf-syntax-ns#"
   xmlns:cc="http://creativecommons.org/ns#"
   xmlns:dc="http://purl.org/dc/elements/1.1/">
  <defs
     id="defs1029" />
  <sodipodi:namedview
     id="base"
     pagecolor="#ffffff"
     bordercolor="#666666"
     borderopacity="1.0"
     inkscape:pageopacity="0.0"
     inkscape:pageshadow="2"
     inkscape:zoom="2.8284271"
     inkscape:cx="25.279068"
     inkscape:cy="98.99495"
     inkscape:document-units="mm"
     inkscape:current-layer="layer9"
     showgrid="false"
     inkscape:window-width="1920"
     inkscape:window-height="1009"
     inkscape:window-x="-8"
     inkscape:window-y="-8"
     inkscape:window-maximized="1"
     inkscape:snap-global="true"
     inkscape:measure-start="75.4375,80.9375"
     inkscape:measure-end="70.875,83.25"
     inkscape:pagecheckerboard="0"
     inkscape:showpageshadow="2"
     inkscape:deskcolor="#d1d1d1" />
  <metadata
     id="metadata1032">
    <rdf:RDF>
      <cc:Work
         rdf:about="">
        <dc:format>image/svg+xml</dc:format>
        <dc:type
           rdf:resource="http://purl.org/dc/dcmitype/StillImage" />
      </cc:Work>
    </rdf:RDF>
  </metadata>
  <g
     inkscape:groupmode="layer"
     id="layer9"
     inkscape:label="Ronhorns (White Dots)"
     style="display:inline"
     transform="translate(-6.7119682,-24.884268)">
    <path
       id="XMLID_296_-3-5-6-7"
       class="st4"
       d="m 13.137073,28.199217 v 0 c 0.02396,-0.012 0.04792,-0.012 0.0599,-0.012 0.0599,-0.02395 0.143769,-0.02395 0.227634,-0.02395 0.239617,0 0.527155,0.02395 0.850636,0.07189 0.323481,0.0599 0.61102,0.09585 0.874597,0.09585 0.07188,0 0.131789,-0.012 0.191693,-0.03595 0.0599,-0.02395 0.07188,-0.09584 0.07188,-0.19169 0,-0.119807 -0.04792,-0.239618 -0.15575,-0.347443 -0.107827,-0.107829 -0.3115,-0.251598 -0.61102,-0.407349 -0.09585,-0.0599 -0.179711,-0.107825 -0.251596,-0.155747 -0.0599,-0.04793 -0.119808,-0.09585 -0.191693,-0.119811 -0.0599,-0.03591 -0.15575,-0.0479 -0.251596,-0.0479 -0.131788,0 -0.467251,0.0599 -1.018366,0.167732 -0.551116,0.107826 -1.162137,0.251595 -1.833059,0.407346 -0.119809,0.02395 -0.227636,0.03595 -0.347443,0.07188 -0.08387,0.02395 -0.179713,0.03595 -0.263578,0.0599 -0.107827,0.02395 -0.227634,0.04792 -0.335462,0.07189 -0.46725,0.10783 -0.8626162,0.191691 -1.1741155,0.251599 0.011981,0.07188 0.059903,0.131788 0.1437694,0.155746 0.083864,0.02395 0.1677299,0.04793 0.2635767,0.04793 0.023962,0 0.071885,-0.012 0.143769,-0.02395 0.059904,-0.012 0.1437694,-0.02395 0.2515964,-0.04792 0.023962,0 0.035945,-0.012 0.059904,-0.012 0.287539,-0.0599 0.658943,-0.131788 1.114213,-0.215654 0.455269,-0.08387 0.910539,-0.119807 1.377789,-0.119807 0.119808,0 0.239617,0.01195 0.359424,0.02395 0.119808,0.012 0.203673,0.04793 0.239616,0.08387 -0.02396,0.07188 -0.08387,0.143769 -0.155751,0.215654 -0.07188,0.07188 -0.143769,0.143769 -0.227634,0.203672 -0.03594,0.012 -0.07188,0.02395 -0.09585,0.02395 -0.05991,0.02395 -0.107828,0.03595 -0.155751,0.0599 -0.04792,0.07189 -0.0599,0.143769 -0.07188,0.215654 0,0.02395 -0.01198,0.04792 -0.01198,0.0599 -0.07188,0.09585 -0.179712,0.239617 -0.335461,0.407349 -0.155751,0.167728 -0.323481,0.347442 -0.503194,0.539133 0,-0.07189 -0.01198,-0.191691 -0.02396,-0.347442 -0.01198,-0.155751 -0.04792,-0.311501 -0.08386,-0.443289 -0.03594,-0.131788 -0.09585,-0.203673 -0.179712,-0.203673 -0.04792,0 -0.08386,0.03595 -0.09585,0.09585 -0.01198,0.0599 -0.01198,0.119806 -0.01198,0.179709 0,0.0599 0.01198,0.14377 0.02396,0.263576 0.01198,0.119811 0.03594,0.251599 0.04792,0.395368 0.01198,0.107825 0.02396,0.215654 0.03594,0.311502 -0.287538,0.155746 -0.61102,0.275557 -0.958462,0.383382 -0.04792,-0.0599 -0.1317889,-0.155751 -0.2635774,-0.275558 -0.1317889,-0.119806 -0.2755582,-0.227635 -0.4193275,-0.33546 -0.011981,-0.012 -0.023962,-0.012 -0.035945,0 -0.011981,0.012 -0.023962,0.02395 -0.03594,0.03595 -0.011981,0.02395 -0.023962,0.03595 -0.047923,0.04793 0.011981,0.107825 0.1198077,0.395364 0.3115004,0.850635 0.1916925,0.455267 0.4792315,1.174113 0.8506355,2.144559 -0.01198,0.012 -0.03594,0.02395 -0.0599,0.02395 -0.04792,0.02395 -0.09585,0.04792 -0.143769,0.08387 -0.04792,0.03595 -0.07188,0.08386 -0.07188,0.131787 0,0.07189 0.04792,0.14377 0.14377,0.215655 0.09585,0.08386 0.275557,0.119806 0.551116,0.119806 0.143769,0 0.275558,-0.012 0.395366,-0.03595 0.131788,-0.02395 0.287538,-0.03595 0.46725,-0.03595 0.167731,0 0.3115,0.012 0.431308,0.03595 0.131788,0.02395 0.275558,0.03595 0.419327,0.03595 0.179712,0 0.323482,-0.02395 0.407347,-0.0599 0.08387,-0.03595 0.15575,-0.08387 0.191692,-0.119811 0.03594,-0.04792 0.0599,-0.08386 0.07188,-0.119806 v -0.012 c 0.323481,-0.682902 0.61102,-1.186095 0.862616,-1.497597 0.251597,-0.311501 0.443289,-0.527155 0.599039,-0.634981 0.08387,-0.07188 0.14377,-0.131787 0.191693,-0.19169 0.04792,-0.05991 0.07188,-0.119811 0.07188,-0.191696 0,-0.143769 -0.107827,-0.323478 -0.311501,-0.527151 -0.203673,-0.203677 -0.431308,-0.371405 -0.682904,-0.527156 -0.251596,-0.155751 -0.431308,-0.227636 -0.551116,-0.227636 -0.08387,0 -0.14377,0.012 -0.191693,0.02395 -0.04792,0.012 -0.09585,0.03595 -0.143769,0.0599 -0.04792,0.02395 -0.107827,0.0599 -0.191692,0.08387 -0.08387,0.03595 -0.191693,0.0599 -0.335463,0.08387 0.01198,-0.119811 0.03594,-0.203673 0.0599,-0.26358 0.02396,-0.0599 0.04792,-0.119807 0.07188,-0.167728 0.09585,-0.03595 0.191693,-0.05991 0.29952,-0.07189 0.08386,-0.012 0.15575,-0.02395 0.215653,-0.04793 0.05991,-0.02395 0.08387,-0.08387 0.08387,-0.167728 0,-0.08387 -0.02396,-0.155751 -0.08387,-0.203677 -0.0599,-0.04792 -0.131788,-0.08386 -0.203673,-0.119806 -0.01198,0 -0.02396,-0.012 -0.02396,-0.012 0.01198,-0.04792 0.03594,-0.08386 0.07188,-0.119806 -0.02396,-0.08387 0.01198,-0.10783 0.03594,-0.119807 z m -2.132579,4.468828 c -0.03594,-0.131788 -0.09585,-0.33546 -0.191692,-0.599036 -0.09585,-0.275557 -0.191693,-0.551119 -0.29952,-0.838658 -0.107827,-0.287538 -0.203673,-0.527151 -0.275558,-0.706865 0.14377,-0.07188 0.29952,-0.143769 0.467251,-0.215654 0.15575,-0.0599 0.287539,-0.107825 0.395366,-0.143769 l 0.0599,1.04233 c 0,0.371405 0.02396,0.658944 0.08387,0.886575 0.01198,0.07188 0.02396,0.143769 0.02396,0.227635 0.02396,0.107829 0.03594,0.227636 0.04792,0.347442 z m 0.802712,-3.198866 c 0.02396,-0.07189 0.0599,-0.143769 0.09585,-0.203672 0.0599,-0.04793 0.131788,-0.07188 0.215654,-0.07188 l 0.07188,0.012 v 0.0599 c 0,0.0599 0,0.107824 -0.01198,0.167728 0,0.04793 -0.01198,0.09585 -0.01198,0.131792 -0.0599,0.01195 -0.107827,0.02395 -0.14377,0.04792 -0.03594,0.012 -0.07188,0.02395 -0.119807,0.03595 -0.03594,0.012 -0.09585,0.012 -0.155751,0.02395 0.01198,-0.07188 0.03594,-0.131788 0.0599,-0.203672 z m 0.251597,1.11421 c -0.01198,0.107829 -0.02396,0.227636 -0.03594,0.359424 -0.04792,0.503192 -0.09585,1.090251 -0.14377,1.761177 -0.04792,0 -0.09585,0 -0.143769,-0.012 -0.04792,0 -0.09585,-0.012 -0.14377,-0.012 -0.03594,-0.706865 -0.07188,-1.293924 -0.119807,-1.761171 l -0.04792,-0.886545 c 0.107827,-0.03595 0.239615,-0.07188 0.383384,-0.107825 0.09585,-0.02395 0.191693,-0.03595 0.299521,-0.07189 z m 0.682904,-0.838653 c 0.0599,-0.012 0.143769,-0.012 0.227635,-0.012 0.0599,0 0.14377,0.02395 0.263577,0.08387 0.107827,0.04792 0.215654,0.119806 0.29952,0.215654 0.08387,0.09585 0.131789,0.191691 0.131789,0.311501 0,0.09584 -0.08387,0.311498 -0.239617,0.646962 -0.15575,0.335461 -0.335461,0.670922 -0.527154,1.006386 -0.191692,0.33546 -0.347442,0.587059 -0.45527,0.742806 -0.02396,0 -0.04792,0.012 -0.0599,0.012 -0.03594,0.012 -0.0599,0.02395 -0.09585,0.02395 -0.02396,0 -0.03594,0 -0.05991,-0.012 -0.02396,-0.012 -0.04792,-0.012 -0.07188,-0.012 0.0599,-0.826672 0.119808,-1.473633 0.203673,-1.928904 l 0.04792,-0.419327 0.09585,-0.599041 c 0.09585,-0.04792 0.179712,-0.0599 0.239616,-0.0599 z"
       inkscape:connector-curvature="0"
       style="display:inline;opacity:1;fill:#000000;fill-opacity:1;stroke-width:0.119808"
       inkscape:label="西"
       inkscape:export-filename="D:\Libraries Type-D\Documents\Longhorn Riichi\Logo\Proposals\Orange with Dots.png"
       inkscape:export-xdpi="600"
       inkscape:export-ydpi="600" />
    <circle
       style="display:inline;opacity:1;fill:#ffffff;fill-opacity:1;stroke:none;stroke-width:0.0135845;stroke-linecap:butt;stroke-linejoin:miter;stroke-miterlimit:4;stroke-dasharray:none;stroke-opacity:1"
       id="path5985-3"
       cx="11.297358"
       cy="30.874168"
       r="0.069041371"
       inkscape:label="点棒 - 点"
       inkscape:export-filename="D:\Libraries Type-D\Documents\Longhorn Riichi\Logo\Proposals\Orange with Dots.png"
       inkscape:export-xdpi="600"
       inkscape:export-ydpi="600" />
    <circle
       style="display:inline;opacity:1;fill:#ffffff;fill-opacity:1;stroke:none;stroke-width:0.0135845;stroke-linecap:butt;stroke-linejoin:miter;stroke-miterlimit:4;stroke-dasharray:none;stroke-opacity:1"
       id="path5985-3-6"
       cx="12.184569"
       cy="30.8391"
       r="0.069041371"
       inkscape:label="点棒 - 点"
       inkscape:export-filename="D:\Libraries Type-D\Documents\Longhorn Riichi\Logo\Proposals\Orange with Dots.png"
       inkscape:export-xdpi="600"
       inkscape:export-ydpi="600" />
    <path
       style="opacity:1;fill:#000000;fill-opacity:1;stroke:#000000;stroke-width:0;stroke-linecap:butt;stroke-linejoin:miter;stroke-miterlimit:4;stroke-dasharray:none;stroke-opacity:1"
       d="m 6.7119687,24.884268 c 0.2199851,0.943811 0.7677911,1.954062 1.357147,2.353039 1.0334417,0.69961 2.9316013,0.466031 4.1273883,0.466331 1.195787,-3e-4 3.094102,0.233279 4.127543,-0.466331 0.589356,-0.398977 1.137163,-1.409228 1.357148,-2.353039 -0.480567,0.92459 -1.144195,1.497599 -1.995504,1.84037 -0.897853,0.361512 -1.56264,0.257697 -2.341726,0.209221 -0.402922,-0.02507 -0.719611,-0.07176 -1.147461,-0.07176 -0.42785,0 -0.744383,0.04669 -1.147306,0.07176 -0.779085,0.04848 -1.4438723,0.152291 -2.3417258,-0.209221 -0.8513087,-0.342771 -1.514937,-0.91578 -1.9955035,-1.84037 z"
       id="path866"
       inkscape:connector-curvature="0"
       sodipodi:nodetypes="cscscsscssc"
       inkscape:label="角" />
  </g>
</svg>
