<?xml version="1.0" encoding="UTF-8" standalone="no"?>
<!-- Created with Inkscape (http://www.inkscape.org/) -->

<svg
   width="135.1875"
   height="93.222656"
   viewBox="0 0 35.768358 24.665161"
   version="1.1"
   id="svg1"
   xmlns="http://www.w3.org/2000/svg"
   xmlns:svg="http://www.w3.org/2000/svg">
  <defs
     id="defs1" />
  <g
     id="layer1"
     transform="translate(-3.282487,-8.8340865)">
    <path
       id="rect1"
       style="fill:#ffffff;stroke-width:1.1;stroke-linecap:round;stroke-linejoin:round"
       d="M 9.3126099,8.8340865 A 6.0303475,6.0303475 0 0 0 7.9390503,8.9968673 l 6.5272497,6.1463947 3.748609,3.5295 a 3.4082521,1.852854 0 0 0 5.903515,0 l 3.748609,-3.5295 6.529834,-6.1489786 A 6.0303475,6.0303475 0 0 0 33.020723,8.8340865 Z m 27.9166421,1.7151405 -7.120495,6.705017 -5.002796,4.710307 a 4.5486401,2.4728118 0 0 1 -7.878589,0 L 12.224577,17.254244 5.1294027,10.573515 A 6.0303475,6.0303475 0 0 0 3.282487,14.864209 v 12.604916 a 6.0303475,6.0303475 0 0 0 6.0301229,6.030123 H 33.020723 a 6.0303475,6.0303475 0 0 0 6.030123,-6.030123 V 14.864209 a 6.0303475,6.0303475 0 0 0 -1.821594,-4.314982 z" />
  </g>
</svg>
