<?xml version="1.0" encoding="UTF-8" standalone="no"?>
<!-- Created with Inkscape (http://www.inkscape.org/) -->

<svg
   width="32"
   height="32"
   viewBox="0 0 8.4666667 8.4666667"
   version="1.1"
   id="svg1035"
   inkscape:version="1.2.2 (732a01da63, 2022-12-09)"
   sodipodi:docname="favicon_inverted_32x32.svg"
   inkscape:export-filename="Ronhorns Inverted.png"
   inkscape:export-xdpi="600"
   inkscape:export-ydpi="600"
   xmlns:inkscape="http://www.inkscape.org/namespaces/inkscape"
   xmlns:sodipodi="http://sodipodi.sourceforge.net/DTD/sodipodi-0.dtd"
   xmlns="http://www.w3.org/2000/svg"
   xmlns:svg="http://www.w3.org/2000/svg"
   xmlns:rdf="http://www.w3.org/1999/02/22-rdf-syntax-ns#"
   xmlns:cc="http://creativecommons.org/ns#"
   xmlns:dc="http://purl.org/dc/elements/1.1/">
  <defs
     id="defs1029" />
  <sodipodi:namedview
     id="base"
     pagecolor="#ffffff"
     bordercolor="#666666"
     borderopacity="1.0"
     inkscape:pageopacity="0"
     inkscape:pageshadow="2"
     inkscape:zoom="11.313708"
     inkscape:cx="17.368311"
     inkscape:cy="24.66035"
     inkscape:document-units="mm"
     inkscape:current-layer="layer9"
     showgrid="false"
     inkscape:window-width="1920"
     inkscape:window-height="1009"
     inkscape:window-x="-8"
     inkscape:window-y="-8"
     inkscape:window-maximized="1"
     inkscape:snap-global="true"
     inkscape:measure-start="97.9343,229.103"
     inkscape:measure-end="-1.40027,90.904"
     inkscape:pagecheckerboard="true"
     inkscape:showpageshadow="2"
     inkscape:deskcolor="#000000" />
  <metadata
     id="metadata1032">
    <rdf:RDF>
      <cc:Work
         rdf:about="">
        <dc:format>image/svg+xml</dc:format>
        <dc:type
           rdf:resource="http://purl.org/dc/dcmitype/StillImage" />
      </cc:Work>
    </rdf:RDF>
  </metadata>
  <g
     inkscape:groupmode="layer"
     id="layer9"
     inkscape:label="Ronhorns (White Dots)"
     style="display:inline"
     transform="translate(0,-14)">
    <rect
       style="display:inline;fill:#000000;stroke:#000000;stroke-width:3.12399;stroke-linecap:butt;stroke-linejoin:round;stroke-dasharray:none"
       id="rect907"
       width="5.3426785"
       height="5.3426785"
       x="1.5619931"
       y="15.561995"
       inkscape:label="Background" />
    <path
       id="XMLID_296_-3-5-6-7"
       class="st4"
       d="m 4.9365723,17.546608 v 0 c 0.017912,-0.009 0.035834,-0.009 0.044795,-0.009 0.044795,-0.01791 0.1075012,-0.01791 0.1702094,-0.01791 0.1791712,0 0.3941727,0.01791 0.6360511,0.05376 0.2418785,0.0448 0.4568809,0.07167 0.6539673,0.07167 0.053756,0 0.098543,-0.009 0.1433352,-0.02688 0.044795,-0.01791 0.053756,-0.07167 0.053756,-0.143334 0,-0.08958 -0.035834,-0.17917 -0.1164602,-0.259794 -0.080629,-0.08063 -0.2329205,-0.18813 -0.4568819,-0.30459 -0.071668,-0.0448 -0.1343763,-0.08063 -0.1881283,-0.116457 -0.044795,-0.03583 -0.08958,-0.07167 -0.1433343,-0.08959 -0.044795,-0.02685 -0.1164602,-0.03582 -0.1881283,-0.03582 -0.098543,0 -0.3493787,0.0448 -0.7614685,0.12542 -0.4120888,0.08062 -0.8689706,0.188126 -1.3706436,0.304587 -0.08958,0.01791 -0.1702108,0.02688 -0.2597954,0.05375 -0.062705,0.01791 -0.1343769,0.02688 -0.1970865,0.0448 -0.080626,0.01791 -0.1702106,0.03583 -0.2508366,0.05375 -0.3493797,0.08063 -0.6450092,0.143335 -0.8779283,0.18813 0.00896,0.05375 0.044792,0.09854 0.1075015,0.116458 0.062708,0.01791 0.1254176,0.03583 0.1970858,0.03583 0.017917,0 0.053751,-0.009 0.1075012,-0.01791 0.044792,-0.009 0.1075015,-0.01791 0.1881275,-0.03583 0.017917,0 0.026877,-0.009 0.044792,-0.009 0.2150028,-0.0448 0.4927152,-0.09854 0.8331365,-0.161252 0.3404217,-0.06271 0.6808433,-0.08958 1.030222,-0.08958 0.08958,0 0.1791713,0.0089 0.2687555,0.01791 0.08958,0.009 0.1522933,0.03583 0.1791683,0.06271 -0.017912,0.05375 -0.062707,0.1075 -0.1164612,0.161252 -0.053746,0.05376 -0.1075002,0.107501 -0.1702093,0.152294 -0.026873,0.009 -0.053746,0.01791 -0.071668,0.01791 -0.044795,0.01791 -0.080629,0.02688 -0.1164612,0.0448 -0.035834,0.05376 -0.044795,0.107502 -0.053746,0.161252 0,0.01791 -0.00891,0.03583 -0.00891,0.0448 -0.053746,0.07167 -0.1343762,0.179171 -0.2508364,0.30459 -0.1164602,0.125418 -0.2418775,0.259795 -0.3762548,0.40313 0,-0.05376 -0.00891,-0.143335 -0.017922,-0.259794 -0.00891,-0.116461 -0.035834,-0.232923 -0.062707,-0.331465 -0.026873,-0.09854 -0.071668,-0.152292 -0.1343773,-0.152292 -0.035834,0 -0.062707,0.02688 -0.071668,0.07167 -0.00891,0.0448 -0.00891,0.08958 -0.00891,0.134375 0,0.0448 0.00891,0.107503 0.017922,0.197087 0.00891,0.08959 0.026873,0.188129 0.035834,0.29563 0.00891,0.08062 0.017922,0.161251 0.026873,0.232922 -0.2151088,0.116524 -0.4569875,0.20611 -0.7167827,0.286735 -0.035831,-0.04479 -0.098543,-0.116461 -0.1970857,-0.206044 -0.098543,-0.08958 -0.2060447,-0.170212 -0.3135463,-0.250837 -0.00896,-0.009 -0.017917,-0.009 -0.026876,0 -0.00896,0.009 -0.017917,0.01791 -0.026874,0.02688 -0.00896,0.01791 -0.017917,0.02688 -0.035834,0.03583 0.00896,0.08062 0.089584,0.295628 0.2329202,0.63605 0.1433352,0.34042 0.3583377,0.877927 0.6360502,1.603563 -0.00896,0.009 -0.026874,0.01791 -0.044789,0.01791 -0.035831,0.01791 -0.07167,0.03583 -0.1075011,0.06271 -0.035831,0.02688 -0.053755,0.06271 -0.053755,0.09854 0,0.05376 0.035831,0.107502 0.1075019,0.161252 0.07167,0.06271 0.2060443,0.08958 0.4120886,0.08958 0.1075017,0 0.2060448,-0.009 0.29563,-0.02688 0.098543,-0.01791 0.2150024,-0.02688 0.3493787,-0.02688 0.1254202,0 0.2329214,0.009 0.3225046,0.02688 0.098543,0.01791 0.2060444,0.02688 0.3135475,0.02688 0.1343753,0 0.2418775,-0.01791 0.3045866,-0.0448 0.062707,-0.02688 0.1164593,-0.06271 0.1433343,-0.08959 0.026873,-0.03583 0.044795,-0.06271 0.053746,-0.08958 v -0.009 c 0.2418784,-0.51063 0.4568818,-0.886886 0.6450092,-1.119808 0.1881283,-0.23292 0.3314626,-0.394172 0.4479228,-0.474797 0.062707,-0.05375 0.1075022,-0.09854 0.1433362,-0.143336 0.035834,-0.0448 0.053746,-0.08959 0.053746,-0.143336 0,-0.107501 -0.080629,-0.241876 -0.2329195,-0.394171 C 5.9578227,18.738004 5.7876123,18.612589 5.599484,18.496128 5.4113566,18.379669 5.2769794,18.325916 5.1873952,18.325916 c -0.062707,0 -0.1075012,0.009 -0.1433352,0.01791 -0.035834,0.009 -0.071668,0.02688 -0.1075013,0.04479 -0.035834,0.01791 -0.080629,0.0448 -0.1433352,0.06271 -0.062707,0.02688 -0.1433353,0.0448 -0.2508375,0.06271 0.00891,-0.08959 0.026873,-0.152294 0.044795,-0.19709 0.017922,-0.04479 0.035834,-0.08958 0.053756,-0.125416 0.071668,-0.02688 0.1433352,-0.0448 0.2239614,-0.05375 0.062707,-0.009 0.1164592,-0.01791 0.1612523,-0.03583 0.044795,-0.01791 0.062707,-0.06271 0.062707,-0.125416 0,-0.06271 -0.017922,-0.11646 -0.062707,-0.152296 -0.044795,-0.03583 -0.098543,-0.06271 -0.1522943,-0.08958 -0.00891,0 -0.017912,-0.009 -0.017912,-0.009 0.00891,-0.03583 0.026873,-0.06271 0.053746,-0.08958 -0.017922,-0.06271 0.00891,-0.08063 0.026873,-0.08958 z m -1.594606,3.341501 C 3.3150927,20.789566 3.270296,20.637272 3.1986316,20.440189 3.1269612,20.234145 3.0552961,20.028097 2.97467,19.813093 2.8940433,19.598091 2.8223759,19.418924 2.7686257,19.284546 c 0.1075012,-0.05376 0.2239616,-0.107501 0.3493799,-0.161253 0.1164596,-0.0448 0.2150027,-0.08062 0.2956289,-0.107501 l 0.044795,0.779388 c 0,0.277712 0.017912,0.492715 0.062707,0.662923 0.00891,0.05376 0.017922,0.107501 0.017922,0.170211 0.017912,0.08063 0.026873,0.170213 0.035834,0.259795 z m 0.6002172,-2.391906 c 0.017912,-0.05376 0.044795,-0.107502 0.071668,-0.152293 0.044795,-0.03583 0.098543,-0.05376 0.1612523,-0.05376 l 0.053746,0.009 v 0.0448 c 0,0.0448 0,0.08063 -0.00891,0.125418 0,0.03583 -0.00891,0.07167 -0.00891,0.09854 -0.044795,0.0089 -0.080629,0.01791 -0.1075012,0.03583 -0.026873,0.009 -0.053746,0.01791 -0.08958,0.02688 -0.026873,0.009 -0.071668,0.009 -0.1164602,0.01791 0.00891,-0.05375 0.026873,-0.09854 0.044795,-0.152293 z m 0.1881273,0.833135 c -0.00891,0.08063 -0.017912,0.17021 -0.026873,0.268753 -0.035834,0.376255 -0.071668,0.815221 -0.1075022,1.316894 -0.035834,0 -0.071668,0 -0.1075012,-0.009 -0.035834,0 -0.071668,-0.009 -0.1075012,-0.009 -0.026873,-0.528549 -0.053756,-0.967513 -0.08958,-1.31689 l -0.035833,-0.662922 c 0.080629,-0.02688 0.1791683,-0.05375 0.2866705,-0.08062 0.071668,-0.01791 0.1433353,-0.02688 0.2239614,-0.05375 z m 0.510632,-0.627091 c 0.044795,-0.009 0.1075021,-0.009 0.1702113,-0.009 0.044795,0 0.1075012,0.01791 0.1970854,0.06271 0.080629,0.03583 0.1612523,0.08958 0.2239623,0.161251 0.062707,0.07167 0.098543,0.143335 0.098543,0.232922 0,0.07167 -0.062707,0.232918 -0.1791703,0.483756 -0.1164592,0.250837 -0.2508355,0.501673 -0.3941717,0.752511 -0.1433353,0.250835 -0.2597965,0.438964 -0.3404216,0.555422 -0.017912,0 -0.035834,0.009 -0.044795,0.009 -0.026873,0.009 -0.044795,0.01791 -0.071668,0.01791 -0.017922,0 -0.026873,0 -0.044795,-0.009 -0.017912,-0.009 -0.035834,-0.009 -0.053756,-0.009 0.044795,-0.618132 0.08959,-1.101889 0.1522943,-1.442311 l 0.035834,-0.313545 0.071668,-0.447926 c 0.071668,-0.03583 0.1343772,-0.0448 0.1791693,-0.0448 z"
       inkscape:connector-curvature="0"
       style="display:inline;opacity:1;fill:#ffffff;fill-opacity:1;stroke-width:0.0895846"
       inkscape:label="西"
       inkscape:export-filename="Orange with Dots.png"
       inkscape:export-xdpi="600"
       inkscape:export-ydpi="600" />
    <circle
       style="display:inline;opacity:1;fill:#ff0036;fill-opacity:1;stroke:none;stroke-width:0.0101576;stroke-linecap:butt;stroke-linejoin:miter;stroke-miterlimit:4;stroke-dasharray:none;stroke-opacity:1"
       id="path5985-3"
       cx="3.5609517"
       cy="19.546764"
       r="0.051624697"
       inkscape:label="点棒 - 点"
       inkscape:export-filename="Orange with Dots.png"
       inkscape:export-xdpi="600"
       inkscape:export-ydpi="600" />
    <circle
       style="display:inline;opacity:1;fill:#ff0036;fill-opacity:1;stroke:none;stroke-width:0.0101576;stroke-linecap:butt;stroke-linejoin:miter;stroke-miterlimit:4;stroke-dasharray:none;stroke-opacity:1"
       id="path5985-3-6"
       cx="4.2243514"
       cy="19.520542"
       r="0.051624697"
       inkscape:label="点棒 - 点"
       inkscape:export-filename="Orange with Dots.png"
       inkscape:export-xdpi="600"
       inkscape:export-ydpi="600" />
    <path
       style="opacity:1;fill:#ffffff;fill-opacity:1;stroke:#000000;stroke-width:0;stroke-linecap:butt;stroke-linejoin:miter;stroke-miterlimit:4;stroke-dasharray:none;stroke-opacity:1"
       d="m 0.13229214,15.067901 c 0.16449083,0.705721 0.57410493,1.461122 1.01478726,1.759451 0.7727413,0.523123 2.192063,0.348468 3.086196,0.348692 0.8941329,-2.24e-4 2.3135695,0.174431 3.0863113,-0.348692 0.4406814,-0.298329 0.850297,-1.05373 1.0147878,-1.759451 -0.3593374,0.691348 -0.8555554,1.119808 -1.4921093,1.37611 C 6.170907,16.714327 5.673823,16.6367 5.091273,16.600454 c -0.3012793,-0.01875 -0.5380786,-0.05366 -0.8579976,-0.05366 -0.319919,0 -0.5566021,0.0349 -0.8578823,0.05366 -0.5825497,0.03625 -1.0796346,0.113873 -1.7509918,-0.156443 -0.6365537,-0.256302 -1.1327724,-0.684762 -1.49210916,-1.37611 z"
       id="path866"
       inkscape:connector-curvature="0"
       sodipodi:nodetypes="cscscsscssc"
       inkscape:label="角" />
  </g>
</svg>
